#N canvas 220 131 450 498 10;
#X obj 124 139 +;
#X obj 115 36 bng 15 250 50 0 empty empty empty 17 7 0 10 -262144 -1
-1;
#X floatatom 211 292 5 0 0 0 - - -;
#X obj 325 135 *;
#X obj 340 41 bng 15 250 50 0 empty empty empty 17 7 0 10 -262144 -1
-1;
#X floatatom 36 117 5 0 0 0 - - -;
#X obj 27 68 bng 15 250 50 0 empty empty empty 17 7 0 10 -262144 -1
-1;
#X obj 221 38 bng 15 250 50 0 empty empty empty 17 7 0 10 -262144 -1
-1;
#X obj 211 151 -;
#X msg 90 88 15;
#X msg 152 83 17;
#X msg 299 99 8;
#X msg 359 99 16;
#X msg 324 184 16;
#X msg 375 194 2;
#X obj 400 146 bng 15 250 50 0 empty empty empty 17 7 0 10 -262144
-1 -1;
#X obj 211 338 osc~;
#X obj 211 390 dac~;
#X msg 194 93 20;
#X msg 254 93 152;
#X obj 336 231 /;
#X connect 0 0 2 0;
#X connect 1 0 9 0;
#X connect 1 0 10 0;
#X connect 2 0 16 0;
#X connect 3 0 2 0;
#X connect 4 0 11 0;
#X connect 4 0 12 0;
#X connect 5 0 2 0;
#X connect 6 0 5 0;
#X connect 7 0 18 0;
#X connect 7 0 19 0;
#X connect 8 0 2 0;
#X connect 9 0 0 0;
#X connect 10 0 0 1;
#X connect 11 0 3 0;
#X connect 12 0 3 1;
#X connect 13 0 20 0;
#X connect 14 0 20 1;
#X connect 15 0 13 0;
#X connect 15 0 14 0;
#X connect 16 0 17 0;
#X connect 16 0 17 1;
#X connect 18 0 8 0;
#X connect 19 0 8 1;
#X connect 20 0 2 0;
