#N canvas 577 12 619 622 10;
#X obj 153 324 bng 15 250 50 0 empty empty empty 17 7 0 10 -262144
-1 -1;
#X obj 154 501 dac~;
#X obj 153 379 metro 500;
#X msg 261 376 stop;
#N canvas 874 102 450 563 subPatch01 0;
#X obj 53 92 metro 250;
#X obj 53 126 random 1000;
#X obj 143 92 metro 1000;
#X obj 143 151 f;
#X obj 143 192 + 1;
#X obj 143 235 route 1 2;
#X msg 196 277 1000;
#X obj 53 319 +;
#X floatatom 53 372 5 0 0 0 - - -;
#X obj 53 408 osc~;
#X msg 143 276 250;
#X obj 52 450 *~ 0.9;
#X obj 82 34 inlet;
#X obj 51 490 outlet~;
#X connect 0 0 1 0;
#X connect 1 0 7 0;
#X connect 2 0 3 0;
#X connect 3 0 4 0;
#X connect 4 0 5 0;
#X connect 5 0 10 0;
#X connect 5 1 6 0;
#X connect 6 0 7 1;
#X connect 7 0 8 0;
#X connect 8 0 9 0;
#X connect 9 0 11 0;
#X connect 10 0 7 1;
#X connect 11 0 13 0;
#X connect 12 0 0 0;
#X connect 12 0 2 0;
#X restore 153 431 pd subPatch01;
#N canvas 862 131 450 503 subPatch02 0;
#X obj 52 154 random 800;
#X obj 59 212 + 200;
#X obj 158 207 + 200;
#X floatatom 59 261 5 0 0 0 - - -;
#X floatatom 162 261 5 0 0 0 - - -;
#X obj 59 308 osc~;
#X obj 162 311 osc~;
#X obj 104 378 *~ 0.5;
#X obj 260 202 + 200;
#X floatatom 264 256 5 0 0 0 - - -;
#X obj 264 306 osc~;
#X obj 257 152 random 1000;
#X obj 155 157 random 500;
#X obj 129 41 inlet;
#X obj 105 427 outlet~;
#X obj 129 88 bng 15 250 50 0 empty empty empty 17 7 0 10 -262144 -1
-1;
#X connect 0 0 1 0;
#X connect 1 0 3 0;
#X connect 2 0 4 0;
#X connect 3 0 5 0;
#X connect 4 0 6 0;
#X connect 5 0 7 0;
#X connect 6 0 7 0;
#X connect 7 0 14 0;
#X connect 8 0 9 0;
#X connect 9 0 10 0;
#X connect 10 0 7 0;
#X connect 11 0 8 0;
#X connect 12 0 2 0;
#X connect 13 0 15 0;
#X connect 15 0 0 0;
#X connect 15 0 11 0;
#X connect 15 0 12 0;
#X restore 374 434 pd subPatch02;
#X obj 374 322 bng 15 250 50 0 empty empty empty 17 7 0 10 -262144
-1 -1;
#X obj 374 382 metro 500;
#X msg 482 379 stop;
#X obj 374 500 dac~;
#X obj 259 157 moses 100;
#X obj 259 90 random 250;
#X obj 259 60 bng 15 250 50 0 empty empty empty 17 7 0 10 -262144 -1
-1;
#X floatatom 259 124 5 0 0 0 - - -;
#X floatatom 259 204 5 0 0 0 - - -;
#X floatatom 310 204 5 0 0 0 - - -;
#X connect 0 0 2 0;
#X connect 0 0 3 0;
#X connect 2 0 4 0;
#X connect 3 0 4 0;
#X connect 4 0 1 0;
#X connect 5 0 9 0;
#X connect 6 0 7 0;
#X connect 6 0 8 0;
#X connect 7 0 5 0;
#X connect 8 0 5 0;
#X connect 10 0 14 0;
#X connect 10 1 15 0;
#X connect 11 0 13 0;
#X connect 12 0 11 0;
#X connect 13 0 10 0;
#X connect 14 0 0 0;
#X connect 15 0 6 0;
