#N canvas 688 182 623 453 10;
#X obj 153 43 bng 15 250 50 0 empty empty empty 17 7 0 10 -262144 -1
-1;
#X obj 153 98 t b b b;
#X msg 152 164 60;
#X msg 220 166 64;
#X msg 294 161 67;
#X obj 163 223 makenote 80 500;
#X obj 173 296 noteout 1;
#X msg 13 165 60 64 67;
#X msg 342 161 500;
#X obj 398 293 noteout 1;
#X msg 414 208 60 80;
#X msg 499 224 60 0;
#X connect 0 0 1 0;
#X connect 1 0 2 0;
#X connect 1 1 3 0;
#X connect 1 2 4 0;
#X connect 2 0 5 0;
#X connect 3 0 5 0;
#X connect 4 0 5 0;
#X connect 5 0 6 0;
#X connect 5 1 6 1;
#X connect 7 0 5 0;
#X connect 8 0 5 2;
#X connect 10 0 9 0;
#X connect 11 0 9 0;
