#N canvas 110 86 510 491 10;
#X obj 297 57 bng 15 250 50 0 empty empty empty 17 7 0 10 -262144 -1
-1;
#X obj 203 144 random 800;
#X obj 347 147 random 800;
#X obj 210 202 + 200;
#X obj 350 197 + 200;
#X floatatom 210 251 5 0 0 0 - - -;
#X floatatom 354 251 5 0 0 0 - - -;
#X obj 210 298 osc~;
#X obj 354 301 osc~;
#X obj 255 368 *~ 0.5;
#X obj 262 418 dac~;
#X connect 0 0 1 0;
#X connect 0 0 2 0;
#X connect 1 0 3 0;
#X connect 2 0 4 0;
#X connect 3 0 5 0;
#X connect 4 0 6 0;
#X connect 5 0 7 0;
#X connect 6 0 8 0;
#X connect 7 0 9 0;
#X connect 8 0 9 0;
#X connect 9 0 10 0;
